<svg width="172" height="32" viewBox="0 0 172 32" fill="none" xmlns="http://www.w3.org/2000/svg">
<path d="M0.0560303 11.736C0.0560303 9.51733 0.53603 7.544 1.49603 5.816C2.45603 4.06667 3.78936 2.712 5.49603 1.752C7.22403 0.770665 9.17603 0.279999 11.352 0.279999C14.0187 0.279999 16.3014 0.983999 18.2 2.392C20.0987 3.8 21.368 5.72 22.008 8.152H15.992C15.544 7.21333 14.904 6.49867 14.072 6.008C13.2614 5.51733 12.3334 5.272 11.288 5.272C9.6027 5.272 8.23736 5.85867 7.19203 7.032C6.1467 8.20533 5.62403 9.77333 5.62403 11.736C5.62403 13.6987 6.1467 15.2667 7.19203 16.44C8.23736 17.6133 9.6027 18.2 11.288 18.2C12.3334 18.2 13.2614 17.9547 14.072 17.464C14.904 16.9733 15.544 16.2587 15.992 15.32H22.008C21.368 17.752 20.0987 19.672 18.2 21.08C16.3014 22.4667 14.0187 23.16 11.352 23.16C9.17603 23.16 7.22403 22.68 5.49603 21.72C3.78936 20.7387 2.45603 19.384 1.49603 17.656C0.53603 15.928 0.0560303 13.9547 0.0560303 11.736Z" fill="#232423"/>
<path d="M33.487 23.256C31.7377 23.256 30.159 22.8827 28.751 22.136C27.3644 21.3893 26.2657 20.3227 25.455 18.936C24.6657 17.5493 24.271 15.928 24.271 14.072C24.271 12.2373 24.6764 10.6267 25.487 9.24C26.2977 7.832 27.407 6.75467 28.815 6.008C30.223 5.26133 31.8017 4.888 33.551 4.888C35.3004 4.888 36.879 5.26133 38.287 6.008C39.695 6.75467 40.8044 7.832 41.615 9.24C42.4257 10.6267 42.831 12.2373 42.831 14.072C42.831 15.9067 42.415 17.528 41.583 18.936C40.7724 20.3227 39.6524 21.3893 38.223 22.136C36.815 22.8827 35.2364 23.256 33.487 23.256ZM33.487 18.52C34.5324 18.52 35.4177 18.136 36.143 17.368C36.8897 16.6 37.263 15.5013 37.263 14.072C37.263 12.6427 36.9004 11.544 36.175 10.776C35.471 10.008 34.5964 9.624 33.551 9.624C32.4844 9.624 31.599 10.008 30.895 10.776C30.191 11.5227 29.839 12.6213 29.839 14.072C29.839 15.5013 30.1804 16.6 30.863 17.368C31.567 18.136 32.4417 18.52 33.487 18.52Z" fill="#232423"/>
<path d="M63.366 5.144V23H57.894V20.568C57.3394 21.3573 56.582 21.9973 55.622 22.488C54.6834 22.9573 53.638 23.192 52.486 23.192C51.1207 23.192 49.9154 22.8933 48.87 22.296C47.8247 21.6773 47.014 20.792 46.438 19.64C45.862 18.488 45.574 17.1333 45.574 15.576V5.144H51.014V14.84C51.014 16.0347 51.3234 16.9627 51.942 17.624C52.5607 18.2853 53.3927 18.616 54.438 18.616C55.5047 18.616 56.3474 18.2853 56.966 17.624C57.5847 16.9627 57.894 16.0347 57.894 14.84V5.144H63.366Z" fill="#232423"/>
<path d="M72.7685 7.672C73.3019 6.84 74.0379 6.168 74.9765 5.656C75.9152 5.144 77.0139 4.888 78.2725 4.888C79.7445 4.888 81.0779 5.26133 82.2725 6.008C83.4672 6.75467 84.4059 7.82133 85.0885 9.208C85.7925 10.5947 86.1445 12.2053 86.1445 14.04C86.1445 15.8747 85.7925 17.496 85.0885 18.904C84.4059 20.2907 83.4672 21.368 82.2725 22.136C81.0779 22.8827 79.7445 23.256 78.2725 23.256C77.0352 23.256 75.9365 23 74.9765 22.488C74.0379 21.976 73.3019 21.3147 72.7685 20.504V31.512H67.2965V5.144H72.7685V7.672ZM80.5765 14.04C80.5765 12.6747 80.1925 11.608 79.4245 10.84C78.6779 10.0507 77.7499 9.656 76.6405 9.656C75.5525 9.656 74.6245 10.0507 73.8565 10.84C73.1099 11.6293 72.7365 12.7067 72.7365 14.072C72.7365 15.4373 73.1099 16.5147 73.8565 17.304C74.6245 18.0933 75.5525 18.488 76.6405 18.488C77.7285 18.488 78.6565 18.0933 79.4245 17.304C80.1925 16.4933 80.5765 15.4053 80.5765 14.04Z" fill="#232423"/>
<path d="M96.0233 20.312L101.463 5.464H104.567L97.6873 23H94.2953L87.4153 5.464H90.5513L96.0233 20.312Z" fill="#232423"/>
<path d="M123.433 13.56C123.433 14.1147 123.401 14.7013 123.337 15.32H109.321C109.427 17.048 110.014 18.4027 111.081 19.384C112.169 20.344 113.481 20.824 115.017 20.824C116.275 20.824 117.321 20.536 118.153 19.96C119.006 19.3627 119.603 18.5733 119.945 17.592H123.081C122.611 19.2773 121.673 20.6533 120.265 21.72C118.857 22.7653 117.107 23.288 115.017 23.288C113.353 23.288 111.859 22.9147 110.537 22.168C109.235 21.4213 108.211 20.3653 107.465 19C106.718 17.6133 106.345 16.0133 106.345 14.2C106.345 12.3867 106.707 10.7973 107.433 9.432C108.158 8.06667 109.171 7.02133 110.473 6.296C111.795 5.54933 113.31 5.176 115.017 5.176C116.681 5.176 118.153 5.53867 119.433 6.264C120.713 6.98933 121.694 7.992 122.377 9.272C123.081 10.5307 123.433 11.96 123.433 13.56ZM120.425 12.952C120.425 11.8427 120.179 10.8933 119.689 10.104C119.198 9.29333 118.526 8.68533 117.673 8.28C116.841 7.85333 115.913 7.64 114.889 7.64C113.417 7.64 112.158 8.10933 111.113 9.048C110.089 9.98667 109.502 11.288 109.353 12.952H120.425Z" fill="#232423"/>
<path d="M130.189 8.312C130.701 7.30933 131.426 6.53067 132.365 5.976C133.325 5.42133 134.487 5.144 135.853 5.144V8.152H135.085C131.821 8.152 130.189 9.92267 130.189 13.464V23H127.277V5.464H130.189V8.312Z" fill="#232423"/>
<path d="M145.422 23.288C144.078 23.288 142.873 23.064 141.806 22.616C140.739 22.1467 139.897 21.5067 139.278 20.696C138.659 19.864 138.318 18.9147 138.254 17.848H141.262C141.347 18.7227 141.753 19.4373 142.478 19.992C143.225 20.5467 144.195 20.824 145.39 20.824C146.499 20.824 147.374 20.5787 148.014 20.088C148.654 19.5973 148.974 18.9787 148.974 18.232C148.974 17.464 148.633 16.8987 147.95 16.536C147.267 16.152 146.211 15.7787 144.782 15.416C143.481 15.0747 142.414 14.7333 141.582 14.392C140.771 14.0293 140.067 13.5067 139.47 12.824C138.894 12.12 138.606 11.2027 138.606 10.072C138.606 9.176 138.873 8.35467 139.406 7.608C139.939 6.86133 140.697 6.27467 141.678 5.848C142.659 5.4 143.779 5.176 145.038 5.176C146.979 5.176 148.547 5.66667 149.742 6.648C150.937 7.62933 151.577 8.97333 151.662 10.68H148.75C148.686 9.76267 148.313 9.02667 147.63 8.472C146.969 7.91733 146.073 7.64 144.942 7.64C143.897 7.64 143.065 7.864 142.446 8.312C141.827 8.76 141.518 9.34667 141.518 10.072C141.518 10.648 141.699 11.128 142.062 11.512C142.446 11.8747 142.915 12.1733 143.47 12.408C144.046 12.6213 144.835 12.8667 145.838 13.144C147.097 13.4853 148.121 13.8267 148.91 14.168C149.699 14.488 150.371 14.9787 150.926 15.64C151.502 16.3013 151.801 17.1653 151.822 18.232C151.822 19.192 151.555 20.056 151.022 20.824C150.489 21.592 149.731 22.2 148.75 22.648C147.79 23.0747 146.681 23.288 145.422 23.288Z" fill="#232423"/>
<path d="M171.933 13.56C171.933 14.1147 171.901 14.7013 171.837 15.32H157.821C157.927 17.048 158.514 18.4027 159.581 19.384C160.669 20.344 161.981 20.824 163.517 20.824C164.775 20.824 165.821 20.536 166.653 19.96C167.506 19.3627 168.103 18.5733 168.445 17.592H171.581C171.111 19.2773 170.173 20.6533 168.765 21.72C167.357 22.7653 165.607 23.288 163.517 23.288C161.853 23.288 160.359 22.9147 159.037 22.168C157.735 21.4213 156.711 20.3653 155.965 19C155.218 17.6133 154.845 16.0133 154.845 14.2C154.845 12.3867 155.207 10.7973 155.933 9.432C156.658 8.06667 157.671 7.02133 158.973 6.296C160.295 5.54933 161.81 5.176 163.517 5.176C165.181 5.176 166.653 5.53867 167.933 6.264C169.213 6.98933 170.194 7.992 170.877 9.272C171.581 10.5307 171.933 11.96 171.933 13.56ZM168.925 12.952C168.925 11.8427 168.679 10.8933 168.189 10.104C167.698 9.29333 167.026 8.68533 166.173 8.28C165.341 7.85333 164.413 7.64 163.389 7.64C161.917 7.64 160.658 8.10933 159.613 9.048C158.589 9.98667 158.002 11.288 157.853 12.952H168.925Z" fill="#232423"/>
</svg>
